<?xml version="1.0" encoding="iso-8859-1"?>
<!-- Generator: Adobe Illustrator 19.0.0, SVG Export Plug-In . SVG Version: 6.00 Build 0)  -->
<svg version="1.1" id="Layer_1" xmlns="http://www.w3.org/2000/svg" xmlns:xlink="http://www.w3.org/1999/xlink" x="0px" y="0px"
	 viewBox="0 0 511.997 511.997" style="enable-background:new 0 0 511.997 511.997;" xml:space="preserve">
<path d="M138.761,94.101c-2.857-0.017-5.509-1.458-7.079-3.838L99.359,41.821L8.616,17.344c-4.708-1.22-7.531-6.03-6.311-10.746
	s6.038-7.539,10.746-6.311l93.813,25.586c1.987,0.537,3.718,1.782,4.861,3.497L145.84,80.54c2.78,3.804,1.953,9.134-1.851,11.914
	C142.48,93.572,140.637,94.152,138.761,94.101z"/>
<circle style="fill:#424242;" cx="334.917" cy="477.858" r="25.586"/>
<path d="M334.917,511.997c-18.839,0-34.114-15.275-34.114-34.114c0-18.839,15.275-34.114,34.114-34.114
	c18.839,0,34.114,15.275,34.114,34.114C369.031,496.723,353.756,511.997,334.917,511.997z M334.917,460.826
	c-9.424,0-17.057,7.633-17.057,17.057c0,9.424,7.633,17.057,17.057,17.057c9.424,0,17.057-7.633,17.057-17.057
	C351.974,468.459,344.341,460.826,334.917,460.826z"/>
<path style="fill:#176A5D;" d="M200.166,109.708l-30.873-35.564c-2.806-3.249-7.59-3.906-11.172-1.535l-38.549,25.586
	c-3.599,2.422-4.81,7.155-2.814,11.002l128.78,249.544c2.166,4.188,7.309,5.825,11.496,3.659c0.154-0.077,0.298-0.162,0.443-0.247
	l8.529-5.117l0.682,1.45l26.78,35.564c11.991-6.021,24.954-9.867,38.293-11.343l-5.373-7.164l-25.586-34.114l-2.217-3.753
	l32.238-19.36c2.559-1.561,4.111-4.341,4.094-7.335v-46.31L200.166,109.708z"/>
<path style="fill:#259789;" d="M166.564,72.097L142.002,83.44c-2.814-3.241-10.319,8.528-13.816,10.661l-12.196,9.637
	c8.529,20.554,15.01,33.432,17.057,37.27l83.835,162.468c2.303,4.35,4.264,34.114,8.529,31.555l14.328,12.707l7.676,13.56
	l15.607,1.279c10.916-5.373,16.204,21.151,28.57,20.298l-21.151-32.92l-7.249-12.281l-2.217-3.753l32.238-19.36
	c2.559-1.561,4.111-4.341,4.094-7.335v-46.139L198.461,105.87L166.564,72.097z"/>
<path d="M293.468,402.577c-2.686,0-5.211-1.262-6.823-3.411l-23.027-30.617l-1.791,1.109c-8.076,4.853-18.549,2.252-23.411-5.825
	c-0.196-0.324-0.384-0.657-0.554-0.998L109.082,113.29c-3.974-7.718-1.51-17.193,5.714-22.004l38.549-25.586
	c7.096-4.81,16.665-3.608,22.345,2.814l31.3,35.564l0,0l134.75,154.963c1.22,1.612,1.825,3.608,1.706,5.629v46.31
	c-0.068,6.03-3.309,11.573-8.529,14.584l-24.477,14.754l27.888,37.184c2.84,3.761,2.089,9.108-1.672,11.948
	c-1.322,0.998-2.9,1.586-4.554,1.697c-12.238,1.407-24.136,4.955-35.137,10.49C295.882,402.201,294.688,402.525,293.468,402.577z
	 M273.767,353.708l22.43,29.764c6.575-2.831,13.364-5.143,20.298-6.908l-22.515-30.02l-0.512-0.768l-2.217-3.753
	c-2.405-4.051-1.066-9.279,2.985-11.684l32.152-19.36v-43.154L162.812,79.773l-38.549,25.586l128.78,249.629l8.528-5.117
	c4.025-2.414,9.253-1.117,11.684,2.9L273.767,353.708z"/>
<path style="fill:#578A36;" d="M334.917,264.671v25.585c-52.791,0-85.285-4.264-136.456-179.098l1.706-1.45L334.917,264.671z"/>
<path d="M334.917,298.785c-57.738,0-92.961-8.529-144.985-185.239c-0.793-3.113,0.222-6.413,2.644-8.529l1.706-1.45
	c3.565-3.002,8.887-2.584,11.94,0.938l134.75,154.963c1.399,1.399,2.277,3.232,2.473,5.202v25.585
	C343.445,294.973,339.633,298.785,334.917,298.785z M216.712,141.775c41.449,130.657,70.616,139.356,109.677,139.953v-13.901
	L216.712,141.775z"/>
<path style="fill:#424242;" d="M500.796,491.785l-10.575-26.353c-1.117-2.823-3.65-4.836-6.652-5.288l-54.838-7.846
	c-25.074-53.559-64.987-72.748-101.745-70.019c-12.255,0.895-24.221,4.17-35.223,9.637c-13.364,6.55-25.04,16.093-34.114,27.888
	c-12.852,16.69-18.942,37.611-17.057,58.591c0.273,4.512,4.008,8.025,8.529,8.017h27.206c-0.588-2.814-0.955-5.663-1.109-8.529
	c0-32.971,26.728-59.699,59.7-59.699l0,0c31.948,0.409,58.079,25.568,59.699,57.482c0.145,5.748-0.486,11.479-1.876,17.057
	c-1.134,4.571,1.655,9.194,6.226,10.328c0.751,0.188,1.527,0.273,2.303,0.247h91.596c4.708-0.034,8.503-3.872,8.469-8.588
	C501.333,493.721,501.146,492.723,500.796,491.785z"/>
<path style="fill:#9E9E9E;" d="M481.607,503.469h-80.338c-4.708,0.136-8.639-3.565-8.776-8.273c-0.026-0.776,0.06-1.552,0.247-2.303
	c1.39-5.578,2.021-11.309,1.876-17.057c-1.527-31.973-27.692-57.235-59.699-57.653c-32.971,0-59.7,26.728-59.7,59.699l0,0
	c-0.017,2.857,0.179,5.706,0.597,8.529h-27.206c-4.52,0.009-8.256-3.505-8.529-8.017c-1.885-20.98,4.205-41.9,17.057-58.591
	c5.262-4.239,10.985-7.872,17.057-10.831c11.002-5.467,22.967-8.742,35.223-9.637c36.758-2.729,76.757,16.46,101.745,70.019
	L466,477.201c3.002,0.452,5.535,2.465,6.652,5.288L481.607,503.469z"/>
<path d="M492.864,511.997h-91.596c-5.407-0.026-10.507-2.542-13.816-6.823c-3.121-4.102-4.222-9.407-2.985-14.413
	c7.113-27.351-9.296-55.29-36.647-62.403c-4.213-1.092-8.554-1.646-12.904-1.646l0,0c-28.263,0-51.171,22.908-51.171,51.171
	c-0.009,2.422,0.162,4.853,0.512,7.249c0.708,4.657-2.499,9.006-7.155,9.714c-0.452,0.068-0.913,0.102-1.373,0.094h-27.121
	c-8.946,0.026-16.383-6.857-17.057-15.778c-2.823-40.365,19.675-78.249,56.459-95.093c12-5.91,25.031-9.424,38.378-10.319
	c44.775-3.326,83.92,22.43,108.056,70.701l50.318,7.164c6.03,0.878,11.138,4.912,13.39,10.575l10.575,26.353
	c3.531,8.733-0.682,18.677-9.415,22.208C497.265,511.588,495.073,512.006,492.864,511.997z M401.013,494.94h91.852l-10.575-26.353
	l-54.753-7.761c-2.84-0.426-5.279-2.252-6.482-4.861c-20.724-44.263-54.753-68.228-93.814-65.158
	c-11.147,0.725-22.038,3.625-32.067,8.528c-30.387,13.91-48.971,45.201-46.651,78.547h18.166c0-37.679,30.549-68.228,68.228-68.228
	l0,0c37.679-0.068,68.279,30.43,68.347,68.109c0.009,5.791-0.716,11.565-2.166,17.176H401.013z"/>
<g>
</g>
<g>
</g>
<g>
</g>
<g>
</g>
<g>
</g>
<g>
</g>
<g>
</g>
<g>
</g>
<g>
</g>
<g>
</g>
<g>
</g>
<g>
</g>
<g>
</g>
<g>
</g>
<g>
</g>
</svg>
